<svg width="24" height="24" viewBox="0 0 24 24" fill="none" xmlns="http://www.w3.org/2000/svg">
  <rect width="24" height="24" rx="2" fill="#E3E3E8" />
  <path
    d="M13.6076 11.8932C13.6076 12.8374 12.8375 13.6075 11.8933 13.6075C10.9491 13.6075 10.179 12.8374 10.179 11.8932C10.179 10.949 10.9491 10.179 11.8933 10.179C12.8375 10.179 13.6076 10.949 13.6076 11.8932ZM14.5317 11.8932C14.5317 10.4334 13.3531 9.25485 11.8933 9.25485C10.4335 9.25485 9.25488 10.4334 9.25488 11.8932C9.25488 13.3531 10.4335 14.5316 11.8933 14.5316C13.3531 14.5316 14.5317 13.3531 14.5317 11.8932ZM15.2549 9.14771C15.2549 8.80619 14.9803 8.53164 14.6388 8.53164C14.2973 8.53164 14.0227 8.80619 14.0227 9.14771C14.0227 9.48923 14.2973 9.76378 14.6388 9.76378C14.9803 9.76378 15.2549 9.48923 15.2549 9.14771ZM11.8933 7.6745C12.6433 7.6745 14.2504 7.61423 14.9268 7.88208C15.1611 7.97583 15.3352 8.08967 15.516 8.27048C15.6968 8.45128 15.8107 8.62539 15.9044 8.85976C16.1723 9.5361 16.112 11.1432 16.112 11.8932C16.112 12.6432 16.1723 14.2504 15.9044 14.9267C15.8107 15.1611 15.6968 15.3352 15.516 15.516C15.3352 15.6968 15.1611 15.8107 14.9268 15.9044C14.2504 16.1723 12.6433 16.112 11.8933 16.112C11.1433 16.112 9.53613 16.1723 8.85979 15.9044C8.62542 15.8107 8.45131 15.6968 8.27051 15.516C8.0897 15.3352 7.97587 15.1611 7.88212 14.9267C7.61426 14.2504 7.67453 12.6432 7.67453 11.8932C7.67453 11.1432 7.61426 9.5361 7.88212 8.85976C7.97587 8.62539 8.0897 8.45128 8.27051 8.27048C8.45131 8.08967 8.62542 7.97583 8.85979 7.88208C9.53613 7.61423 11.1433 7.6745 11.8933 7.6745ZM17.0361 11.8932C17.0361 11.1834 17.0428 10.4803 17.0027 9.77048C16.9625 8.94682 16.775 8.21691 16.1723 7.61423C15.5696 7.01155 14.8397 6.82405 14.016 6.78387C13.3062 6.74369 12.6031 6.75039 11.8933 6.75039C11.1835 6.75039 10.4803 6.74369 9.77051 6.78387C8.94685 6.82405 8.21694 7.01155 7.61426 7.61423C7.01158 8.21691 6.82408 8.94682 6.7839 9.77048C6.74372 10.4803 6.75042 11.1834 6.75042 11.8932C6.75042 12.6031 6.74372 13.3062 6.7839 14.016C6.82408 14.8397 7.01158 15.5696 7.61426 16.1723C8.21694 16.7749 8.94685 16.9624 9.77051 17.0026C10.4803 17.0428 11.1835 17.0361 11.8933 17.0361C12.6031 17.0361 13.3062 17.0428 14.016 17.0026C14.8397 16.9624 15.5696 16.7749 16.1723 16.1723C16.775 15.5696 16.9625 14.8397 17.0027 14.016C17.0428 13.3062 17.0361 12.6031 17.0361 11.8932Z"
    fill="#646981" />
</svg>