<svg width="24" height="24" viewBox="0 0 24 24" fill="none" xmlns="http://www.w3.org/2000/svg">
  <rect width="24" height="24" rx="2" fill="#E3E3E8" />
  <path
    d="M17.2481 16.5V16.4996H17.2506V12.9237C17.2506 11.1744 16.874 9.82687 14.8289 9.82687C13.8458 9.82687 13.186 10.3664 12.9167 10.8778H12.8883V9.99019H10.9492V16.4996H12.9683V13.2764C12.9683 12.4277 13.1292 11.6071 14.1801 11.6071C15.2157 11.6071 15.2311 12.5756 15.2311 13.3308V16.5H17.2481Z"
    fill="#646981" />
  <path d="M7.66113 9.99069H9.68264V16.5001H7.66113V9.99069Z" fill="#646981" />
  <path
    d="M8.67082 6.74997C8.02447 6.74997 7.5 7.27444 7.5 7.92079C7.5 8.56713 8.02447 9.10257 8.67082 9.10257C9.31716 9.10257 9.84163 8.56713 9.84163 7.92079C9.84123 7.27444 9.31676 6.74997 8.67082 6.74997V6.74997Z"
    fill="#646981" />
</svg>