<svg width="18" height="19" viewBox="0 0 18 19" fill="none" xmlns="http://www.w3.org/2000/svg">
  <path fill-rule="evenodd" clip-rule="evenodd"
    d="M14.2021 14.3221C14.7337 14.7599 14.7338 15.4631 14.1955 15.8983L12.8889 16.9547C12.3536 17.3875 11.3822 17.5882 10.7307 17.3676C10.7307 17.3676 8.09822 16.8771 4.83975 13.6572C1.58129 10.4374 1.08485 7.83608 1.08485 7.83608C0.877699 7.18721 1.06233 6.23539 1.50276 5.70347L2.57177 4.41239C3.00973 3.88346 3.72354 3.8801 4.16696 4.4059L5.78053 6.31923C6.07557 6.66908 6.10921 7.25735 5.85177 7.63893L5.13475 8.70171C5.13475 8.70171 5.14344 10.4593 6.60974 11.9082C8.07605 13.3572 9.85473 13.3657 9.85473 13.3657L10.9303 12.6572C11.3138 12.4046 11.9144 12.4383 12.2658 12.7276L14.2021 14.3221Z"
    stroke="#646981" stroke-width="1.5" stroke-linecap="round" stroke-linejoin="round" />
  <path d="M17 9.5493C17 5.18158 13.4183 1.64084 9 1.64084" stroke="#646981" stroke-width="1.5" stroke-linecap="round"
    stroke-linejoin="round" />
  <path d="M13.4 9.54927C13.4 7.14702 11.4301 5.19962 9 5.19962" stroke="#646981" stroke-width="1.5"
    stroke-linecap="round" stroke-linejoin="round" />
</svg>