<svg width="24" height="24" viewBox="0 0 24 24" fill="none" xmlns="http://www.w3.org/2000/svg">
  <rect width="24" height="24" rx="2" fill="#E3E3E8" />
  <path
    d="M17.6805 9.478C17.6202 9.23718 17.4975 9.01652 17.3246 8.83833C17.1518 8.66013 16.935 8.53071 16.6961 8.46312C15.8233 8.25 12.3321 8.25 12.3321 8.25C12.3321 8.25 8.84094 8.25 7.96814 8.48342C7.72926 8.551 7.51245 8.68043 7.3396 8.85862C7.16675 9.03682 7.04399 9.25747 6.98371 9.4983C6.82398 10.3841 6.74584 11.2826 6.75029 12.1826C6.7446 13.0895 6.82274 13.9949 6.98371 14.8873C7.05017 15.1206 7.17568 15.3329 7.34813 15.5036C7.52057 15.6742 7.73412 15.7975 7.96814 15.8616C8.84094 16.095 12.3321 16.095 12.3321 16.095C12.3321 16.095 15.8233 16.095 16.6961 15.8616C16.935 15.794 17.1518 15.6646 17.3246 15.4864C17.4975 15.3082 17.6202 15.0875 17.6805 14.8467C17.839 13.9676 17.9171 13.0759 17.9139 12.1826C17.9196 11.2758 17.8415 10.3704 17.6805 9.478Z"
    fill="#646981" />
  <path
    d="M11.1904 13.019C11.1904 13.3758 11.5754 13.5997 11.8855 13.4234L13.3972 12.5637C13.7108 12.3853 13.7108 11.9334 13.3972 11.755L11.8855 10.8953C11.5754 10.719 11.1904 10.9429 11.1904 11.2997V13.019Z"
    fill="#F6F6FA" />
</svg>