<svg width="352" height="64" viewBox="0 0 352 64" fill="none" xmlns="http://www.w3.org/2000/svg">
  <mask id="mask0_167_58" style="mask-type:alpha" maskUnits="userSpaceOnUse" x="0" y="0" width="352" height="64">
    <rect width="352" height="64" fill="#C4C4C4" />
  </mask>
  <g mask="url(#mask0_167_58)">
    <path fill-rule="evenodd" clip-rule="evenodd"
      d="M289.221 7.11074H318.546L325.094 -4.08826H295.726L289.221 7.11074ZM87.0735 63.0946H39.6032C39.6032 63.0946 38.2987 63.2408 36.1792 62.4735C28.9983 59.8761 13.2151 52.3041 13.0052 35.8678L13.004 35.7815C12.9684 33.2822 12.7717 19.4586 32.6113 8.75969C34.7437 7.60768 47.2142 1.2882 64.3598 -1.39943L64.541 -1.42812C66.6558 -1.76374 75.3683 -3.14642 93.0588 -4.08821L281.449 -4.08593L274.957 7.04024L86.4323 7.04024C86.4323 7.04024 81.3374 7.08477 78.6531 7.47866C78.3927 7.5168 78.0699 7.55837 77.6913 7.60713L77.6913 7.60714L77.6912 7.60715L77.6902 7.60728L77.6902 7.60728L77.6899 7.60732C74.1564 8.06241 65.7625 9.14348 57.7866 13.8895C55.4676 15.2687 46.8861 20.5218 42.0347 28.5322C42.0347 28.5322 38.4993 33.7898 39.8803 40.099C40.6433 43.6053 42.8892 47.8297 51.3989 49.9876C52.6105 50.2958 58.2863 50.8382 58.9496 50.7765C59.6082 50.7171 68.4297 50.8918 68.4297 50.8918L80.7275 30.3373L69.711 30.4206L76.3155 19.3161H112.801L87.0735 63.0946ZM198.343 11.8389H192.238C192.238 11.8389 178.884 11.7351 173.258 12.1195C153.192 13.4851 131.76 18.9678 116.19 32.2618C116.113 32.3271 116.015 32.4078 115.898 32.5046C114.334 33.7993 109.31 37.9559 105.058 46.1569C104.215 47.7838 101.485 54.5226 105.117 62.9521L105.127 62.9758L105.155 63.0414L105.155 63.0415C105.677 64.277 108.807 71.6838 121.174 80.199L131.953 68.9368C131.953 68.9368 127.261 65.5931 125.973 61.088C125.692 60.1012 125.156 56.4528 127.148 52.7224C127.214 52.5985 127.28 52.474 127.346 52.3493C127.713 51.6523 128.085 50.9481 128.552 50.3152L151.439 50.3141L143.897 63.1494H168.192L188.181 29.1302H163.888L159.05 37.3601L136.974 37.3396C136.974 37.3396 141.726 28.7812 159.936 25.4979C161.542 25.2081 168.087 24.446 173.789 24.4495L190.913 24.4529L198.343 11.8389ZM198.227 24.1863L205.14 11.8261L271.883 11.8261L220.167 50.3089H249.291L241.776 63.1057H175.026L227.186 24.1863H198.227ZM286.593 11.8261L256.936 63.6951H286.356L316.126 11.8261H286.593ZM407.602 -4.08826L401.116 7.11074L328.681 7.11074L335.169 -4.08826L407.602 -4.08826ZM295.51 63.426L325.654 11.8261H355.06L360.826 29.0486L370.902 11.8261L398.634 11.8261L356.938 83.146H131.978L138.696 71.7171H335.886L348.984 49.3079L341.423 29.0039L321.303 63.426H295.51Z"
      fill="url(#paint0_linear_167_58)" fill-opacity="0.15" />
  </g>
  <defs>
    <linearGradient id="paint0_linear_167_58" x1="498.48" y1="7.99477" x2="-69.6622" y2="62.2595"
      gradientUnits="userSpaceOnUse">
      <stop stop-color="#FFFFFE" />
      <stop offset="1" stop-color="#FFFFFE" stop-opacity="0" />
    </linearGradient>
  </defs>
</svg>