<svg width="100" height="26" viewBox="0 0 100 26" fill="none" xmlns="http://www.w3.org/2000/svg">
  <path fill-rule="evenodd" clip-rule="evenodd" d="M73.1263 0.942871H80.0578L78.5174 3.60488H71.5859L73.1263 0.942871Z"
    fill="white" />
  <path fill-rule="evenodd" clip-rule="evenodd" d="M77.8884 4.75137L70.8758 17.099H63.9443L70.9366 4.75137H77.8884Z"
    fill="white" />
  <path fill-rule="evenodd" clip-rule="evenodd"
    d="M62.8896 14.007L61.1264 17.099H45.4799L57.7012 7.72054H50.9115L52.5329 4.75137H68.1794L56.0595 14.007H62.8896Z"
    fill="white" />
  <path fill-rule="evenodd" clip-rule="evenodd"
    d="M12.0405 4.0349C12.5472 3.7687 15.4657 2.23292 19.4786 1.59814C19.884 1.53671 21.931 1.1886 26.2074 0.942871H70.35L68.83 3.62536H24.6468C24.6468 3.62536 23.4511 3.62536 22.8228 3.72775C22.1945 3.83013 20.0056 4.01443 17.9383 5.26352C17.3911 5.59116 15.3846 6.86073 14.2496 8.78557C14.2496 8.78557 13.4187 10.0552 13.7429 11.5705C13.9253 12.41 14.4523 13.4339 16.4385 13.9458C16.7223 14.0277 18.0599 14.1506 18.2018 14.1301C18.3639 14.1096 20.4312 14.1506 20.4312 14.1506L23.3092 9.21559L20.7352 9.23607L22.2756 6.57405H30.8284L24.809 17.0992H13.6821C13.6821 17.0992 13.3781 17.1402 12.8714 16.9559C11.1892 16.3416 7.48028 14.5191 7.43975 10.5671C7.43975 10.0142 7.33841 6.63549 12.0405 4.0349Z"
    fill="white" />
  <path fill-rule="evenodd" clip-rule="evenodd"
    d="M0 21.8081L1.5606 19.0642H28.0097C28.4758 20.3747 29.3879 21.0709 30.5431 21.8081H0Z" fill="white" />
  <path fill-rule="evenodd" clip-rule="evenodd"
    d="M32.8142 21.1935C29.8349 19.0844 29.1458 17.2619 29.0647 17.0367C28.2135 15.0094 28.862 13.3917 29.0444 13.0027C30.1186 10.8731 31.3955 9.89017 31.6589 9.66492C35.3071 6.4705 40.3132 5.13949 45.0152 4.81186C46.3326 4.70948 49.4538 4.75043 49.4538 4.75043H50.8725L49.1295 7.78103H45.1166C43.7789 7.78103 42.2588 7.96533 41.8738 8.02676C37.6176 8.82536 36.5029 10.8731 36.5029 10.8731H41.6711L42.8061 8.88679H48.5012L43.8194 17.0776H38.1243L39.8875 13.9856H34.5369C34.4153 14.1699 34.314 14.3746 34.2126 14.5589C33.7465 15.4599 33.8681 16.3404 33.9289 16.5657C34.2329 17.651 35.3274 18.4496 35.3274 18.4496L32.8142 21.1935Z"
    fill="white" />
  <path fill-rule="evenodd" clip-rule="evenodd" d="M98.4598 3.62536H81.3945L82.9349 0.942871H100L98.4598 3.62536Z"
    fill="white" />
  <path
    d="M97.829 4.75482H91.3231L88.9721 8.87071L87.6345 4.75482H80.7435L73.6904 17.1025H79.7301L84.4322 8.87071L86.1955 13.7238L84.2093 17.1025H90.6949L97.829 4.75482Z"
    fill="white" />
  <path d="M37.0071 19.0879L35.4465 21.8114H55.6937L57.2543 19.0879H37.0071Z" fill="white" />
  <path
    d="M68.5246 21.7064C68.9502 21.4402 69.2339 20.9897 69.2339 20.314C69.2339 18.8192 67.7544 18.4915 66.5383 18.4915H63.8428V25.1671H66.5992C67.9976 25.1671 69.4366 24.819 69.4366 23.2217C69.4163 22.4436 69.0515 21.9726 68.5246 21.7064ZM65.0994 19.7406H66.5181C67.4301 19.7406 67.9368 19.843 67.9368 20.4369C67.9368 21.0307 67.4301 21.174 66.5181 21.174H65.0994V19.7406ZM66.5789 23.918H65.0994V22.3412H66.5789C67.6531 22.3412 68.1395 22.505 68.1395 23.0989C68.1395 23.6927 67.6733 23.918 66.5789 23.918Z"
    fill="white" />
  <path
    d="M73.9761 20.5598C73.5505 20.3755 72.983 20.2117 72.4763 20.2117C70.8549 20.2117 69.8821 21.215 69.8821 22.7099C69.8821 24.2047 70.8955 25.2081 72.4966 25.2081C73.0236 25.2081 73.5505 25.0647 73.9761 24.9009L74.0167 25.1671H75.1314V20.355L74.0167 20.2936L73.9761 20.5598ZM73.8748 23.7132C73.5505 23.8361 73.1046 23.959 72.5979 23.959C71.2197 23.959 71.1589 23.058 71.1589 22.7099C71.1589 22.3618 71.2197 21.4608 72.5979 21.4608C73.0033 21.4608 73.51 21.5836 73.8748 21.727V23.7132Z"
    fill="white" />
  <path
    d="M78.9616 20.232C78.4549 20.232 77.8469 20.3958 77.401 20.5801L77.3604 20.3139L76.2255 20.3753V25.1874H77.5023V21.7677C77.8671 21.6244 78.4549 21.5015 78.8602 21.5015C80.1168 21.5015 80.0966 22.1978 80.0966 22.4844V25.2079H81.3734V22.4435C81.3734 21.0101 80.4614 20.232 78.9616 20.232Z"
    fill="white" />
  <path d="M82.3274 25.1679H83.584V24.4512V22.5059V18.431L82.3274 18.4924V25.1679Z" fill="white" />
  <path
    d="M85.1438 21.7892L87.8191 19.0453L87.0084 18.2467L83.9277 21.3797V22.1783L87.0084 25.3932L87.8191 24.5946L85.1438 21.7892Z"
    fill="white" />
  <path
    d="M60.3971 18.2467L59.6067 19.0453L62.282 21.7892L59.5864 24.5946L60.4174 25.3932L63.4778 22.1783V21.3797L60.3971 18.2467Z"
    fill="white" />
</svg>